<svg width="630" height="229" viewBox="0 0 630 229" fill="none" xmlns="http://www.w3.org/2000/svg">
<path d="M514 108L546 98L578 108L564 141.92L546 145L528 141.92L514 108Z" fill="#970D0D"/>
<path d="M518 118L546 108L574 118L564 142L546 145L528 142L518 118Z" fill="black"/>
<rect x="538" y="66" width="16" height="13" fill="#787575"/>
<path d="M519 79H573V83.5714L571.193 87H521.007L519 83.5714V79Z" fill="#787575"/>
<path fill-rule="evenodd" clip-rule="evenodd" d="M570 87H522V103.5L546 96.1707L570 103.5V87ZM528 90H537.756V94H528V90ZM541.073 90H550.829V94H541.073V90ZM564 90H554.244V94H564V90Z" fill="#787575"/>
<path d="M121.6 15H150V155H122.6V64.2L83.2 129.2H80L40.6 64.4V155H13V15H41.4L81.6 81.2L121.6 15ZM233.886 157.8C220.153 157.8 208.553 154.733 199.086 148.6C189.619 142.467 182.886 134 178.886 123.2L202.486 109.4C207.953 123.667 218.686 130.8 234.686 130.8C242.153 130.8 247.753 129.467 251.486 126.8C255.219 124.133 257.086 120.533 257.086 116C257.086 111.067 254.886 107.267 250.486 104.6C246.086 101.8 238.219 98.8 226.886 95.6C214.619 91.8667 204.953 87.5333 197.886 82.6C189.086 76.0667 184.686 66.4667 184.686 53.8C184.686 41 189.153 30.9333 198.086 23.6C207.019 16 217.886 12.2 230.686 12.2C241.886 12.2 251.819 14.9333 260.486 20.4C269.153 25.8667 275.886 33.6 280.686 43.6L257.486 57C251.886 45 242.953 39 230.686 39C225.086 39 220.619 40.3333 217.286 43C213.953 45.5333 212.286 48.8667 212.286 53C212.286 57.4 214.086 61 217.686 63.8C221.686 66.6 228.753 69.5333 238.886 72.6L248.486 75.8C250.219 76.3333 253.219 77.4667 257.486 79.2C261.486 80.6667 264.419 82.0667 266.286 83.4C272.819 87.4 277.219 91.5333 279.486 95.8C282.953 101.4 284.686 108 284.686 115.6C284.686 128.533 279.953 138.8 270.486 146.4C261.019 154 248.819 157.8 233.886 157.8ZM379.888 79.8H450.088V90.6C450.088 110.6 443.688 126.8 430.888 139.2C418.088 151.6 401.554 157.8 381.288 157.8C359.688 157.8 341.754 150.8 327.488 136.8C313.354 122.667 306.287 105.467 306.287 85.2C306.287 64.8 313.288 47.5333 327.288 33.4C341.421 19.2667 358.888 12.2 379.688 12.2C392.621 12.2 404.488 15.1333 415.288 21C426.088 26.8667 434.554 34.8 440.688 44.8L417.088 58.4C413.754 52.6667 408.688 48 401.888 44.4C395.088 40.8 387.621 39 379.488 39C366.021 39 355.021 43.4 346.488 52.2C337.954 60.7333 333.688 71.7333 333.688 85.2C333.688 98.4 338.021 109.333 346.688 118C355.354 126.533 366.954 130.8 381.488 130.8C392.021 130.8 400.821 128.467 407.888 123.8C414.954 119.133 419.754 112.6 422.288 104.2H379.888V79.8ZM597.519 136.8C583.385 150.8 566.185 157.8 545.919 157.8C525.652 157.8 508.452 150.8 494.319 136.8C480.319 122.533 473.319 105.267 473.319 85C473.319 64.6 480.319 47.4 494.319 33.4C508.452 19.2667 525.652 12.2 545.919 12.2C566.185 12.2 583.385 19.2667 597.519 33.4C611.652 47.4 618.719 64.6 618.719 85C618.719 105.4 611.652 122.667 597.519 136.8ZM513.719 118C522.252 126.533 532.985 130.8 545.919 130.8C558.852 130.8 569.585 126.533 578.119 118C586.785 109.333 591.119 98.3333 591.119 85C591.119 71.6667 586.785 60.6667 578.119 52C569.452 43.3333 558.719 39 545.919 39C533.119 39 522.385 43.3333 513.719 52C505.052 60.6667 500.719 71.6667 500.719 85C500.719 98.3333 505.052 109.333 513.719 118Z" fill="#27668C"/>
<path d="M22.2683 222.352C20.1989 222.352 18.4389 221.883 16.9883 220.944C15.5589 219.984 14.5883 218.693 14.0763 217.072L15.5483 216.208C15.9536 217.595 16.7216 218.693 17.8523 219.504C19.0043 220.315 20.4763 220.72 22.2683 220.72C24.0816 220.72 25.4683 220.304 26.4283 219.472C27.4096 218.64 27.9003 217.563 27.9003 216.24C27.9003 215.003 27.4309 214.053 26.4923 213.392C25.5536 212.731 24.0923 212.08 22.1083 211.44C21.3829 211.205 20.8496 211.035 20.5083 210.928C20.1883 210.8 19.7189 210.619 19.1003 210.384C18.4816 210.128 18.0229 209.904 17.7243 209.712C17.4256 209.52 17.0629 209.264 16.6363 208.944C16.2309 208.624 15.9323 208.304 15.7403 207.984C15.5483 207.643 15.3776 207.248 15.2283 206.8C15.0789 206.331 15.0043 205.819 15.0043 205.264C15.0043 203.451 15.6443 202 16.9243 200.912C18.2256 199.803 19.8469 199.248 21.7883 199.248C23.5376 199.248 25.0309 199.685 26.2683 200.56C27.5056 201.435 28.4123 202.565 28.9883 203.952L27.5483 204.752C26.4816 202.171 24.5616 200.88 21.7883 200.88C20.2523 200.88 19.0256 201.285 18.1083 202.096C17.1909 202.907 16.7323 203.941 16.7323 205.2C16.7323 206.416 17.1589 207.323 18.0123 207.92C18.8656 208.517 20.2629 209.136 22.2043 209.776C23.4416 210.181 24.4016 210.533 25.0843 210.832C25.7883 211.109 26.5349 211.504 27.3243 212.016C28.1349 212.507 28.7216 213.104 29.0843 213.808C29.4469 214.491 29.6283 215.291 29.6283 216.208C29.6283 218.064 28.9563 219.557 27.6123 220.688C26.2683 221.797 24.4869 222.352 22.2683 222.352ZM41.4433 205.648C43.3419 205.648 44.8459 206.235 45.9553 207.408C47.0859 208.56 47.6513 210.107 47.6513 212.048V222H46.0193V212.048C46.0193 210.555 45.6033 209.371 44.7713 208.496C43.9606 207.621 42.8086 207.184 41.3153 207.184C39.6726 207.184 38.3286 207.728 37.2833 208.816C36.2379 209.904 35.7153 211.483 35.7153 213.552V222H34.1153V199.6H35.7153V209.04C36.8673 206.779 38.7766 205.648 41.4433 205.648ZM54.5138 201.776C54.2578 202.011 53.9591 202.128 53.6178 202.128C53.2764 202.128 52.9778 202.011 52.7218 201.776C52.4658 201.52 52.3378 201.211 52.3378 200.848C52.3378 200.507 52.4658 200.219 52.7218 199.984C52.9778 199.728 53.2764 199.6 53.6178 199.6C53.9591 199.6 54.2578 199.728 54.5138 199.984C54.7698 200.219 54.8978 200.507 54.8978 200.848C54.8978 201.211 54.7698 201.52 54.5138 201.776ZM52.8178 222V206H54.4178V222H52.8178ZM68.469 205.648C70.773 205.648 72.725 206.459 74.325 208.08C75.9463 209.68 76.757 211.653 76.757 214C76.757 216.347 75.9463 218.331 74.325 219.952C72.725 221.552 70.773 222.352 68.469 222.352C66.9543 222.352 65.589 221.989 64.373 221.264C63.1783 220.539 62.2503 219.547 61.589 218.288V228.4H59.989V206H61.589V209.712C62.2503 208.453 63.1783 207.461 64.373 206.736C65.589 206.011 66.9543 205.648 68.469 205.648ZM63.541 218.832C64.8637 220.155 66.4743 220.816 68.373 220.816C70.2717 220.816 71.8717 220.155 73.173 218.832C74.4957 217.509 75.157 215.899 75.157 214C75.157 212.101 74.4957 210.491 73.173 209.168C71.8717 207.845 70.2717 207.184 68.373 207.184C66.4743 207.184 64.8637 207.845 63.541 209.168C62.2397 210.491 61.589 212.101 61.589 214C61.589 215.899 62.2397 217.509 63.541 218.832ZM82.0295 210.192C82.0295 210.981 82.3602 211.6 83.0215 212.048C83.6828 212.496 84.4935 212.837 85.4535 213.072C86.4135 213.285 87.3628 213.531 88.3015 213.808C89.2615 214.085 90.0722 214.555 90.7335 215.216C91.3948 215.856 91.7255 216.72 91.7255 217.808C91.7255 219.131 91.1922 220.219 90.1255 221.072C89.0802 221.925 87.7042 222.352 85.9975 222.352C84.4615 222.352 83.1602 222.032 82.0935 221.392C81.0482 220.731 80.3228 219.867 79.9175 218.8L81.2935 218C81.5922 218.875 82.1468 219.568 82.9575 220.08C83.7895 220.571 84.8028 220.816 85.9975 220.816C87.1922 220.816 88.1735 220.56 88.9415 220.048C89.7308 219.515 90.1255 218.768 90.1255 217.808C90.1255 217.019 89.7948 216.389 89.1335 215.92C88.4722 215.451 87.6615 215.109 86.7015 214.896C85.7415 214.661 84.7815 214.405 83.8215 214.128C82.8828 213.851 82.0828 213.392 81.4215 212.752C80.7602 212.112 80.4295 211.259 80.4295 210.192C80.4295 208.912 80.9308 207.835 81.9335 206.96C82.9575 206.085 84.2695 205.648 85.8695 205.648C87.1495 205.648 88.2588 205.936 89.1975 206.512C90.1575 207.088 90.8615 207.867 91.3095 208.848L89.9655 209.616C89.6455 208.827 89.1122 208.229 88.3655 207.824C87.6188 207.397 86.7868 207.184 85.8695 207.184C84.7815 207.184 83.8642 207.461 83.1175 208.016C82.3922 208.549 82.0295 209.275 82.0295 210.192ZM119.873 222L114.497 212.816H107.425V222H105.729V199.6H114.561C116.374 199.6 117.932 200.251 119.233 201.552C120.534 202.853 121.185 204.411 121.185 206.224C121.185 207.739 120.716 209.083 119.777 210.256C118.86 211.429 117.686 212.208 116.257 212.592L121.825 222H119.873ZM107.425 201.2V211.216H114.561C115.926 211.216 117.089 210.736 118.049 209.776C119.009 208.795 119.489 207.611 119.489 206.224C119.489 204.837 119.009 203.653 118.049 202.672C117.089 201.691 115.926 201.2 114.561 201.2H107.425ZM132.062 205.648C134.408 205.648 136.307 206.48 137.758 208.144C139.23 209.808 139.966 211.781 139.966 214.064C139.966 214.149 139.955 214.277 139.934 214.448C139.934 214.619 139.934 214.747 139.934 214.832H125.438C125.63 216.624 126.344 218.075 127.582 219.184C128.84 220.272 130.387 220.816 132.222 220.816C133.502 220.816 134.622 220.549 135.582 220.016C136.542 219.483 137.267 218.779 137.758 217.904L139.166 218.736C138.504 219.845 137.566 220.731 136.35 221.392C135.134 222.032 133.747 222.352 132.19 222.352C129.736 222.352 127.72 221.573 126.142 220.016C124.563 218.437 123.774 216.432 123.774 214C123.774 211.611 124.542 209.627 126.078 208.048C127.635 206.448 129.63 205.648 132.062 205.648ZM132.062 207.184C130.248 207.184 128.734 207.749 127.518 208.88C126.302 210.011 125.608 211.472 125.438 213.264H138.302C138.131 211.365 137.448 209.883 136.254 208.816C135.08 207.728 133.683 207.184 132.062 207.184ZM152.825 205.648C155.129 205.648 157.081 206.459 158.681 208.08C160.303 209.68 161.113 211.653 161.113 214C161.113 216.347 160.303 218.331 158.681 219.952C157.081 221.552 155.129 222.352 152.825 222.352C151.311 222.352 149.945 221.989 148.729 221.264C147.535 220.539 146.607 219.547 145.945 218.288V228.4H144.345V206H145.945V209.712C146.607 208.453 147.535 207.461 148.729 206.736C149.945 206.011 151.311 205.648 152.825 205.648ZM147.897 218.832C149.22 220.155 150.831 220.816 152.729 220.816C154.628 220.816 156.228 220.155 157.529 218.832C158.852 217.509 159.513 215.899 159.513 214C159.513 212.101 158.852 210.491 157.529 209.168C156.228 207.845 154.628 207.184 152.729 207.184C150.831 207.184 149.22 207.845 147.897 209.168C146.596 210.491 145.945 212.101 145.945 214C145.945 215.899 146.596 217.509 147.897 218.832ZM179.69 206H181.322V222H179.69V218.384C179.008 219.621 178.069 220.592 176.874 221.296C175.68 222 174.325 222.352 172.81 222.352C170.528 222.352 168.576 221.552 166.954 219.952C165.333 218.331 164.522 216.347 164.522 214C164.522 211.653 165.333 209.68 166.954 208.08C168.576 206.459 170.528 205.648 172.81 205.648C174.325 205.648 175.68 206 176.874 206.704C178.069 207.408 179.008 208.379 179.69 209.616V206ZM168.106 218.832C169.429 220.155 171.04 220.816 172.938 220.816C174.837 220.816 176.437 220.155 177.738 218.832C179.04 217.509 179.69 215.899 179.69 214C179.69 212.101 179.04 210.491 177.738 209.168C176.437 207.845 174.837 207.184 172.938 207.184C171.04 207.184 169.429 207.845 168.106 209.168C166.805 210.491 166.154 212.101 166.154 214C166.154 215.899 166.805 217.509 168.106 218.832ZM188.571 201.776C188.315 202.011 188.017 202.128 187.675 202.128C187.334 202.128 187.035 202.011 186.779 201.776C186.523 201.52 186.395 201.211 186.395 200.848C186.395 200.507 186.523 200.219 186.779 199.984C187.035 199.728 187.334 199.6 187.675 199.6C188.017 199.6 188.315 199.728 188.571 199.984C188.827 200.219 188.955 200.507 188.955 200.848C188.955 201.211 188.827 201.52 188.571 201.776ZM186.875 222V206H188.475V222H186.875ZM195.647 209.136C196.607 206.896 198.388 205.776 200.991 205.776V207.312C199.476 207.312 198.207 207.803 197.183 208.784C196.159 209.744 195.647 211.184 195.647 213.104V222H194.047V206H195.647V209.136ZM228.125 206H229.757V222H228.125V218.384C227.443 219.621 226.504 220.592 225.309 221.296C224.115 222 222.76 222.352 221.245 222.352C218.963 222.352 217.011 221.552 215.389 219.952C213.768 218.331 212.957 216.347 212.957 214C212.957 211.653 213.768 209.68 215.389 208.08C217.011 206.459 218.963 205.648 221.245 205.648C222.76 205.648 224.115 206 225.309 206.704C226.504 207.408 227.443 208.379 228.125 209.616V206ZM216.541 218.832C217.864 220.155 219.475 220.816 221.373 220.816C223.272 220.816 224.872 220.155 226.173 218.832C227.475 217.509 228.125 215.899 228.125 214C228.125 212.101 227.475 210.491 226.173 209.168C224.872 207.845 223.272 207.184 221.373 207.184C219.475 207.184 217.864 207.845 216.541 209.168C215.24 210.491 214.589 212.101 214.589 214C214.589 215.899 215.24 217.509 216.541 218.832ZM242.638 205.648C244.537 205.648 246.041 206.235 247.15 207.408C248.281 208.56 248.846 210.107 248.846 212.048V222H247.214V212.048C247.214 210.555 246.798 209.371 245.966 208.496C245.156 207.621 244.004 207.184 242.51 207.184C240.868 207.184 239.524 207.728 238.478 208.816C237.433 209.904 236.91 211.483 236.91 213.552V222H235.31V206H236.91V209.04C238.062 206.779 239.972 205.648 242.638 205.648ZM268.125 199.6H269.725V222H268.125V218.288C267.463 219.547 266.525 220.539 265.309 221.264C264.114 221.989 262.759 222.352 261.245 222.352C258.941 222.352 256.978 221.552 255.357 219.952C253.757 218.331 252.957 216.347 252.957 214C252.957 211.653 253.757 209.68 255.357 208.08C256.978 206.459 258.941 205.648 261.245 205.648C262.759 205.648 264.114 206.011 265.309 206.736C266.525 207.461 267.463 208.453 268.125 209.712V199.6ZM256.509 218.832C257.831 220.155 259.442 220.816 261.341 220.816C263.239 220.816 264.839 220.155 266.141 218.832C267.463 217.509 268.125 215.899 268.125 214C268.125 212.101 267.463 210.491 266.141 209.168C264.839 207.845 263.239 207.184 261.341 207.184C259.442 207.184 257.831 207.845 256.509 209.168C255.207 210.491 254.557 212.101 254.557 214C254.557 215.899 255.207 217.509 256.509 218.832ZM305.025 199.6V222H303.329V202.096L295.041 215.856H294.753L286.465 202.096V222H284.769V199.6H286.881L294.881 212.848L302.881 199.6H305.025ZM324.982 206H326.614V222H324.982V218.384C324.299 219.621 323.36 220.592 322.166 221.296C320.971 222 319.616 222.352 318.102 222.352C315.819 222.352 313.867 221.552 312.246 219.952C310.624 218.331 309.814 216.347 309.814 214C309.814 211.653 310.624 209.68 312.246 208.08C313.867 206.459 315.819 205.648 318.102 205.648C319.616 205.648 320.971 206 322.166 206.704C323.36 207.408 324.299 208.379 324.982 209.616V206ZM313.398 218.832C314.72 220.155 316.331 220.816 318.23 220.816C320.128 220.816 321.728 220.155 323.03 218.832C324.331 217.509 324.982 215.899 324.982 214C324.982 212.101 324.331 210.491 323.03 209.168C321.728 207.845 320.128 207.184 318.23 207.184C316.331 207.184 314.72 207.845 313.398 209.168C312.096 210.491 311.446 212.101 311.446 214C311.446 215.899 312.096 217.509 313.398 218.832ZM333.863 201.776C333.607 202.011 333.308 202.128 332.967 202.128C332.625 202.128 332.327 202.011 332.071 201.776C331.815 201.52 331.687 201.211 331.687 200.848C331.687 200.507 331.815 200.219 332.071 199.984C332.327 199.728 332.625 199.6 332.967 199.6C333.308 199.6 333.607 199.728 333.863 199.984C334.119 200.219 334.247 200.507 334.247 200.848C334.247 201.211 334.119 201.52 333.863 201.776ZM332.167 222V206H333.767V222H332.167ZM346.666 205.648C348.564 205.648 350.068 206.235 351.178 207.408C352.308 208.56 352.874 210.107 352.874 212.048V222H351.242V212.048C351.242 210.555 350.826 209.371 349.994 208.496C349.183 207.621 348.031 207.184 346.538 207.184C344.895 207.184 343.551 207.728 342.506 208.816C341.46 209.904 340.938 211.483 340.938 213.552V222H339.338V206H340.938V209.04C342.09 206.779 343.999 205.648 346.666 205.648ZM366.232 207.568H361.464V217.968C361.464 218.885 361.635 219.547 361.976 219.952C362.318 220.357 362.84 220.592 363.544 220.656C364.248 220.699 365.144 220.667 366.232 220.56V222C364.078 222.32 362.467 222.171 361.4 221.552C360.355 220.933 359.832 219.739 359.832 217.968V207.568H356.312V206H359.832V202L361.464 201.52V206H366.232V207.568ZM376.943 205.648C379.289 205.648 381.188 206.48 382.639 208.144C384.111 209.808 384.847 211.781 384.847 214.064C384.847 214.149 384.836 214.277 384.815 214.448C384.815 214.619 384.815 214.747 384.815 214.832H370.319C370.511 216.624 371.225 218.075 372.463 219.184C373.721 220.272 375.268 220.816 377.103 220.816C378.383 220.816 379.503 220.549 380.463 220.016C381.423 219.483 382.148 218.779 382.639 217.904L384.047 218.736C383.385 219.845 382.447 220.731 381.231 221.392C380.015 222.032 378.628 222.352 377.071 222.352C374.617 222.352 372.601 221.573 371.023 220.016C369.444 218.437 368.655 216.432 368.655 214C368.655 211.611 369.423 209.627 370.959 208.048C372.516 206.448 374.511 205.648 376.943 205.648ZM376.943 207.184C375.129 207.184 373.615 207.749 372.399 208.88C371.183 210.011 370.489 211.472 370.319 213.264H383.183C383.012 211.365 382.329 209.883 381.135 208.816C379.961 207.728 378.564 207.184 376.943 207.184ZM396.555 205.648C398.453 205.648 399.957 206.235 401.067 207.408C402.197 208.56 402.763 210.107 402.763 212.048V222H401.131V212.048C401.131 210.555 400.715 209.371 399.883 208.496C399.072 207.621 397.92 207.184 396.427 207.184C394.784 207.184 393.44 207.728 392.395 208.816C391.349 209.904 390.827 211.483 390.827 213.552V222H389.227V206H390.827V209.04C391.979 206.779 393.888 205.648 396.555 205.648ZM422.009 206H423.641V222H422.009V218.384C421.326 219.621 420.388 220.592 419.193 221.296C417.998 222 416.644 222.352 415.129 222.352C412.846 222.352 410.894 221.552 409.273 219.952C407.652 218.331 406.841 216.347 406.841 214C406.841 211.653 407.652 209.68 409.273 208.08C410.894 206.459 412.846 205.648 415.129 205.648C416.644 205.648 417.998 206 419.193 206.704C420.388 207.408 421.326 208.379 422.009 209.616V206ZM410.425 218.832C411.748 220.155 413.358 220.816 415.257 220.816C417.156 220.816 418.756 220.155 420.057 218.832C421.358 217.509 422.009 215.899 422.009 214C422.009 212.101 421.358 210.491 420.057 209.168C418.756 207.845 417.156 207.184 415.257 207.184C413.358 207.184 411.748 207.845 410.425 209.168C409.124 210.491 408.473 212.101 408.473 214C408.473 215.899 409.124 217.509 410.425 218.832ZM436.522 205.648C438.421 205.648 439.925 206.235 441.034 207.408C442.165 208.56 442.73 210.107 442.73 212.048V222H441.098V212.048C441.098 210.555 440.682 209.371 439.85 208.496C439.039 207.621 437.887 207.184 436.394 207.184C434.751 207.184 433.407 207.728 432.362 208.816C431.317 209.904 430.794 211.483 430.794 213.552V222H429.194V206H430.794V209.04C431.946 206.779 433.855 205.648 436.522 205.648ZM455.225 222.352C452.814 222.352 450.809 221.552 449.209 219.952C447.609 218.352 446.809 216.368 446.809 214C446.809 211.632 447.609 209.648 449.209 208.048C450.809 206.448 452.814 205.648 455.225 205.648C456.782 205.648 458.19 206.021 459.449 206.768C460.707 207.493 461.625 208.485 462.201 209.744L460.889 210.512C460.419 209.488 459.673 208.677 458.649 208.08C457.646 207.483 456.505 207.184 455.225 207.184C453.305 207.184 451.694 207.845 450.393 209.168C449.091 210.469 448.441 212.08 448.441 214C448.441 215.92 449.091 217.541 450.393 218.864C451.694 220.165 453.305 220.816 455.225 220.816C456.505 220.816 457.646 220.517 458.649 219.92C459.673 219.323 460.451 218.512 460.985 217.488L462.329 218.288C461.689 219.525 460.729 220.517 459.449 221.264C458.19 221.989 456.782 222.352 455.225 222.352ZM473.518 205.648C475.864 205.648 477.763 206.48 479.214 208.144C480.686 209.808 481.422 211.781 481.422 214.064C481.422 214.149 481.411 214.277 481.39 214.448C481.39 214.619 481.39 214.747 481.39 214.832H466.894C467.086 216.624 467.8 218.075 469.038 219.184C470.296 220.272 471.843 220.816 473.678 220.816C474.958 220.816 476.078 220.549 477.038 220.016C477.998 219.483 478.723 218.779 479.214 217.904L480.622 218.736C479.96 219.845 479.022 220.731 477.806 221.392C476.59 222.032 475.203 222.352 473.646 222.352C471.192 222.352 469.176 221.573 467.598 220.016C466.019 218.437 465.23 216.432 465.23 214C465.23 211.611 465.998 209.627 467.534 208.048C469.091 206.448 471.086 205.648 473.518 205.648ZM473.518 207.184C471.704 207.184 470.19 207.749 468.974 208.88C467.758 210.011 467.064 211.472 466.894 213.264H479.758C479.587 211.365 478.904 209.883 477.71 208.816C476.536 207.728 475.139 207.184 473.518 207.184ZM502.141 222.352C500.071 222.352 498.311 221.883 496.861 220.944C495.431 219.984 494.461 218.693 493.949 217.072L495.421 216.208C495.826 217.595 496.594 218.693 497.725 219.504C498.877 220.315 500.349 220.72 502.141 220.72C503.954 220.72 505.341 220.304 506.301 219.472C507.282 218.64 507.773 217.563 507.773 216.24C507.773 215.003 507.303 214.053 506.365 213.392C505.426 212.731 503.965 212.08 501.981 211.44C501.255 211.205 500.722 211.035 500.381 210.928C500.061 210.8 499.591 210.619 498.973 210.384C498.354 210.128 497.895 209.904 497.597 209.712C497.298 209.52 496.935 209.264 496.509 208.944C496.103 208.624 495.805 208.304 495.613 207.984C495.421 207.643 495.25 207.248 495.101 206.8C494.951 206.331 494.877 205.819 494.877 205.264C494.877 203.451 495.517 202 496.797 200.912C498.098 199.803 499.719 199.248 501.661 199.248C503.41 199.248 504.903 199.685 506.141 200.56C507.378 201.435 508.285 202.565 508.861 203.952L507.421 204.752C506.354 202.171 504.434 200.88 501.661 200.88C500.125 200.88 498.898 201.285 497.981 202.096C497.063 202.907 496.605 203.941 496.605 205.2C496.605 206.416 497.031 207.323 497.885 207.92C498.738 208.517 500.135 209.136 502.077 209.776C503.314 210.181 504.274 210.533 504.957 210.832C505.661 211.109 506.407 211.504 507.197 212.016C508.007 212.507 508.594 213.104 508.957 213.808C509.319 214.491 509.501 215.291 509.501 216.208C509.501 218.064 508.829 219.557 507.485 220.688C506.141 221.797 504.359 222.352 502.141 222.352ZM521.625 205.648C523.972 205.648 525.871 206.48 527.321 208.144C528.793 209.808 529.529 211.781 529.529 214.064C529.529 214.149 529.519 214.277 529.497 214.448C529.497 214.619 529.497 214.747 529.497 214.832H515.001C515.193 216.624 515.908 218.075 517.145 219.184C518.404 220.272 519.951 220.816 521.785 220.816C523.065 220.816 524.185 220.549 525.145 220.016C526.105 219.483 526.831 218.779 527.321 217.904L528.729 218.736C528.068 219.845 527.129 220.731 525.913 221.392C524.697 222.032 523.311 222.352 521.753 222.352C519.3 222.352 517.284 221.573 515.705 220.016C514.127 218.437 513.337 216.432 513.337 214C513.337 211.611 514.105 209.627 515.641 208.048C517.199 206.448 519.193 205.648 521.625 205.648ZM521.625 207.184C519.812 207.184 518.297 207.749 517.081 208.88C515.865 210.011 515.172 211.472 515.001 213.264H527.865C527.695 211.365 527.012 209.883 525.817 208.816C524.644 207.728 523.247 207.184 521.625 207.184ZM535.509 209.136C536.469 206.896 538.25 205.776 540.853 205.776V207.312C539.338 207.312 538.069 207.803 537.045 208.784C536.021 209.744 535.509 211.184 535.509 213.104V222H533.909V206H535.509V209.136ZM556.48 206H558.176L551.424 222H549.472L542.688 206H544.416L550.432 220.336L556.48 206ZM563.416 201.776C563.16 202.011 562.862 202.128 562.52 202.128C562.179 202.128 561.88 202.011 561.624 201.776C561.368 201.52 561.24 201.211 561.24 200.848C561.24 200.507 561.368 200.219 561.624 199.984C561.88 199.728 562.179 199.6 562.52 199.6C562.862 199.6 563.16 199.728 563.416 199.984C563.672 200.219 563.8 200.507 563.8 200.848C563.8 201.211 563.672 201.52 563.416 201.776ZM561.72 222V206H563.32V222H561.72ZM576.219 222.352C573.809 222.352 571.803 221.552 570.203 219.952C568.603 218.352 567.803 216.368 567.803 214C567.803 211.632 568.603 209.648 570.203 208.048C571.803 206.448 573.809 205.648 576.219 205.648C577.777 205.648 579.185 206.021 580.443 206.768C581.702 207.493 582.619 208.485 583.195 209.744L581.883 210.512C581.414 209.488 580.667 208.677 579.643 208.08C578.641 207.483 577.499 207.184 576.219 207.184C574.299 207.184 572.689 207.845 571.387 209.168C570.086 210.469 569.435 212.08 569.435 214C569.435 215.92 570.086 217.541 571.387 218.864C572.689 220.165 574.299 220.816 576.219 220.816C577.499 220.816 578.641 220.517 579.643 219.92C580.667 219.323 581.446 218.512 581.979 217.488L583.323 218.288C582.683 219.525 581.723 220.517 580.443 221.264C579.185 221.989 577.777 222.352 576.219 222.352ZM594.513 205.648C596.859 205.648 598.758 206.48 600.209 208.144C601.681 209.808 602.417 211.781 602.417 214.064C602.417 214.149 602.406 214.277 602.385 214.448C602.385 214.619 602.385 214.747 602.385 214.832H587.889C588.081 216.624 588.795 218.075 590.033 219.184C591.291 220.272 592.838 220.816 594.673 220.816C595.953 220.816 597.073 220.549 598.033 220.016C598.993 219.483 599.718 218.779 600.209 217.904L601.617 218.736C600.955 219.845 600.017 220.731 598.801 221.392C597.585 222.032 596.198 222.352 594.641 222.352C592.187 222.352 590.171 221.573 588.593 220.016C587.014 218.437 586.225 216.432 586.225 214C586.225 211.611 586.993 209.627 588.529 208.048C590.086 206.448 592.081 205.648 594.513 205.648ZM594.513 207.184C592.699 207.184 591.185 207.749 589.969 208.88C588.753 210.011 588.059 211.472 587.889 213.264H600.753C600.582 211.365 599.899 209.883 598.705 208.816C597.531 207.728 596.134 207.184 594.513 207.184ZM607.26 210.192C607.26 210.981 607.59 211.6 608.252 212.048C608.913 212.496 609.724 212.837 610.684 213.072C611.644 213.285 612.593 213.531 613.532 213.808C614.492 214.085 615.302 214.555 615.964 215.216C616.625 215.856 616.956 216.72 616.956 217.808C616.956 219.131 616.422 220.219 615.356 221.072C614.31 221.925 612.934 222.352 611.228 222.352C609.692 222.352 608.39 222.032 607.324 221.392C606.278 220.731 605.553 219.867 605.148 218.8L606.524 218C606.822 218.875 607.377 219.568 608.188 220.08C609.02 220.571 610.033 220.816 611.228 220.816C612.422 220.816 613.404 220.56 614.172 220.048C614.961 219.515 615.356 218.768 615.356 217.808C615.356 217.019 615.025 216.389 614.364 215.92C613.702 215.451 612.892 215.109 611.932 214.896C610.972 214.661 610.012 214.405 609.052 214.128C608.113 213.851 607.313 213.392 606.652 212.752C605.99 212.112 605.66 211.259 605.66 210.192C605.66 208.912 606.161 207.835 607.164 206.96C608.188 206.085 609.5 205.648 611.1 205.648C612.38 205.648 613.489 205.936 614.428 206.512C615.388 207.088 616.092 207.867 616.54 208.848L615.196 209.616C614.876 208.827 614.342 208.229 613.596 207.824C612.849 207.397 612.017 207.184 611.1 207.184C610.012 207.184 609.094 207.461 608.348 208.016C607.622 208.549 607.26 209.275 607.26 210.192Z" fill="#27668C"/>
<rect x="12" y="171" width="607" height="12" fill="#27668C"/>
</svg>
