<svg width="630" height="171" viewBox="0 0 630 171" fill="none" xmlns="http://www.w3.org/2000/svg">
<path d="M514 108L546 98L578 108L564 141.92L546 145L528 141.92L514 108Z" fill="#970D0D"/>
<path d="M518 118L546 108L574 118L564 142L546 145L528 142L518 118Z" fill="black"/>
<rect x="538" y="66" width="16" height="13" fill="#787575"/>
<path d="M519 79H573V83.5714L571.193 87H521.007L519 83.5714V79Z" fill="#787575"/>
<path fill-rule="evenodd" clip-rule="evenodd" d="M570 87H522V103.5L546 96.1707L570 103.5V87ZM528 90H537.756V94H528V90ZM541.073 90H550.829V94H541.073V90ZM564 90H554.244V94H564V90Z" fill="#787575"/>
<path d="M121.6 15H150V155H122.6V64.2L83.2 129.2H80L40.6 64.4V155H13V15H41.4L81.6 81.2L121.6 15ZM233.886 157.8C220.153 157.8 208.553 154.733 199.086 148.6C189.619 142.467 182.886 134 178.886 123.2L202.486 109.4C207.953 123.667 218.686 130.8 234.686 130.8C242.153 130.8 247.753 129.467 251.486 126.8C255.219 124.133 257.086 120.533 257.086 116C257.086 111.067 254.886 107.267 250.486 104.6C246.086 101.8 238.219 98.8 226.886 95.6C214.619 91.8667 204.953 87.5333 197.886 82.6C189.086 76.0667 184.686 66.4667 184.686 53.8C184.686 41 189.153 30.9333 198.086 23.6C207.019 16 217.886 12.2 230.686 12.2C241.886 12.2 251.819 14.9333 260.486 20.4C269.153 25.8667 275.886 33.6 280.686 43.6L257.486 57C251.886 45 242.953 39 230.686 39C225.086 39 220.619 40.3333 217.286 43C213.953 45.5333 212.286 48.8667 212.286 53C212.286 57.4 214.086 61 217.686 63.8C221.686 66.6 228.753 69.5333 238.886 72.6L248.486 75.8C250.219 76.3333 253.219 77.4667 257.486 79.2C261.486 80.6667 264.419 82.0667 266.286 83.4C272.819 87.4 277.219 91.5333 279.486 95.8C282.953 101.4 284.686 108 284.686 115.6C284.686 128.533 279.953 138.8 270.486 146.4C261.019 154 248.819 157.8 233.886 157.8ZM379.888 79.8H450.088V90.6C450.088 110.6 443.688 126.8 430.888 139.2C418.088 151.6 401.554 157.8 381.288 157.8C359.688 157.8 341.754 150.8 327.488 136.8C313.354 122.667 306.287 105.467 306.287 85.2C306.287 64.8 313.288 47.5333 327.288 33.4C341.421 19.2667 358.888 12.2 379.688 12.2C392.621 12.2 404.488 15.1333 415.288 21C426.088 26.8667 434.554 34.8 440.688 44.8L417.088 58.4C413.754 52.6667 408.688 48 401.888 44.4C395.088 40.8 387.621 39 379.488 39C366.021 39 355.021 43.4 346.488 52.2C337.954 60.7333 333.688 71.7333 333.688 85.2C333.688 98.4 338.021 109.333 346.688 118C355.354 126.533 366.954 130.8 381.488 130.8C392.021 130.8 400.821 128.467 407.888 123.8C414.954 119.133 419.754 112.6 422.288 104.2H379.888V79.8ZM597.519 136.8C583.385 150.8 566.185 157.8 545.919 157.8C525.652 157.8 508.452 150.8 494.319 136.8C480.319 122.533 473.319 105.267 473.319 85C473.319 64.6 480.319 47.4 494.319 33.4C508.452 19.2667 525.652 12.2 545.919 12.2C566.185 12.2 583.385 19.2667 597.519 33.4C611.652 47.4 618.719 64.6 618.719 85C618.719 105.4 611.652 122.667 597.519 136.8ZM513.719 118C522.252 126.533 532.985 130.8 545.919 130.8C558.852 130.8 569.585 126.533 578.119 118C586.785 109.333 591.119 98.3333 591.119 85C591.119 71.6667 586.785 60.6667 578.119 52C569.452 43.3333 558.719 39 545.919 39C533.119 39 522.385 43.3333 513.719 52C505.052 60.6667 500.719 71.6667 500.719 85C500.719 98.3333 505.052 109.333 513.719 118Z" fill="#27668C"/>
</svg>
